<svg xmlns="http://www.w3.org/2000/svg" xmlns:xlink="http://www.w3.org/1999/xlink" width="500" zoomAndPan="magnify" viewBox="0 0 375 374.999991" height="500" preserveAspectRatio="xMidYMid meet" version="1.0"><defs><filter x="0%" y="0%" width="100%" height="100%" id="1544680773"><feColorMatrix values="0 0 0 0 1 0 0 0 0 1 0 0 0 0 1 0 0 0 1 0" color-interpolation-filters="sRGB"/></filter><clipPath id="9ce0ee9060"><path d="M 75.066406 106.035156 L 336 106.035156 L 336 303.890625 L 75.066406 303.890625 Z M 75.066406 106.035156 " clip-rule="nonzero"/></clipPath><clipPath id="27d0abe7fd"><path d="M 147.144531 106.035156 L 330 106.035156 C 331.738281 106.035156 333.371094 106.871094 334.386719 108.277344 C 335.402344 109.6875 335.679688 111.5 335.128906 113.148438 L 273.917969 296.773438 C 272.503906 301.023438 268.527344 303.890625 264.046875 303.890625 L 81.191406 303.890625 C 79.457031 303.890625 77.824219 303.054688 76.808594 301.644531 C 75.792969 300.234375 75.515625 298.421875 76.0625 296.773438 L 137.273438 113.148438 C 138.6875 108.898438 142.664062 106.035156 147.144531 106.035156 " clip-rule="nonzero"/></clipPath><mask id="41f5754335"><g filter="url(#1544680773)"><rect x="-37.5" width="450" fill="#000000" y="-37.499999" height="449.999989" fill-opacity="0.8"/></g></mask><clipPath id="db9b661103"><path d="M 2 0.617188 L 262.933594 0.617188 L 262.933594 198.472656 L 2 198.472656 Z M 2 0.617188 " clip-rule="nonzero"/></clipPath><clipPath id="c93a4dc985"><path d="M 73.953125 0.617188 L 256.808594 0.617188 C 258.542969 0.617188 260.175781 1.453125 261.191406 2.859375 C 262.207031 4.269531 262.484375 6.082031 261.933594 7.730469 L 200.726562 191.355469 C 199.3125 195.605469 195.335938 198.472656 190.855469 198.472656 L 8 198.472656 C 6.261719 198.472656 4.628906 197.636719 3.613281 196.226562 C 2.597656 194.816406 2.320312 193.003906 2.871094 191.355469 L 64.082031 7.730469 C 65.496094 3.480469 69.472656 0.617188 73.953125 0.617188 " clip-rule="nonzero"/></clipPath><clipPath id="1219b5b726"><rect x="0" width="265" y="0" height="199"/></clipPath></defs><rect x="-37.5" width="450" fill="#ffffff" y="-37.499999" height="449.999989" fill-opacity="1"/><rect x="-37.5" width="450" fill="#ffffff" y="-37.499999" height="449.999989" fill-opacity="1"/><rect x="-37.5" width="450" fill="#ffffff" y="-37.499999" height="449.999989" fill-opacity="1"/><g clip-path="url(#9ce0ee9060)"><g clip-path="url(#27d0abe7fd)"><path fill="#6366f1" d="M 73.691406 106.035156 L 337.5 106.035156 L 337.5 303.890625 L 73.691406 303.890625 Z M 73.691406 106.035156 " fill-opacity="1" fill-rule="nonzero"/></g></g><g mask="url(#41f5754335)"><g transform="matrix(1, 0, 0, 1, 37, 69)"><g clip-path="url(#1219b5b726)"><g clip-path="url(#db9b661103)"><g clip-path="url(#c93a4dc985)"><path fill="#a855f7" d="M 0.5 0.617188 L 264.308594 0.617188 L 264.308594 198.472656 L 0.5 198.472656 Z M 0.5 0.617188 " fill-opacity="1" fill-rule="nonzero"/></g></g></g></g></g></svg>