<svg xmlns="http://www.w3.org/2000/svg" xmlns:xlink="http://www.w3.org/1999/xlink" width="1080" zoomAndPan="magnify" viewBox="0 0 810 809.999993" height="1080" preserveAspectRatio="xMidYMid meet" version="1.0"><defs><clipPath id="19a3c03fda"><path d="M 81 81 L 729 81 L 729 729 L 81 729 Z M 81 81 " clip-rule="nonzero"/></clipPath><clipPath id="5a73b344e9"><path d="M 405 81 C 410.300781 81 415.601562 81.128906 420.898438 81.390625 C 426.195312 81.652344 431.480469 82.039062 436.757812 82.558594 C 442.035156 83.078125 447.296875 83.730469 452.539062 84.507812 C 457.785156 85.285156 463.007812 86.191406 468.210938 87.226562 C 473.410156 88.261719 478.582031 89.421875 483.726562 90.710938 C 488.871094 92 493.976562 93.410156 499.050781 94.953125 C 504.125 96.492188 509.160156 98.152344 514.152344 99.941406 C 519.144531 101.726562 524.089844 103.632812 528.988281 105.664062 C 533.886719 107.691406 538.734375 109.839844 543.527344 112.109375 C 548.320312 114.375 553.054688 116.757812 557.734375 119.257812 C 562.410156 121.757812 567.019531 124.371094 571.570312 127.097656 C 576.117188 129.820312 580.597656 132.65625 585.003906 135.605469 C 589.414062 138.550781 593.746094 141.601562 598.007812 144.761719 C 602.265625 147.917969 606.445312 151.179688 610.542969 154.542969 C 614.640625 157.910156 618.65625 161.371094 622.585938 164.933594 C 626.515625 168.492188 630.351562 172.148438 634.101562 175.898438 C 637.851562 179.648438 641.507812 183.484375 645.066406 187.414062 C 648.628906 191.34375 652.089844 195.359375 655.457031 199.457031 C 658.820312 203.554688 662.082031 207.734375 665.238281 211.992188 C 668.398438 216.253906 671.449219 220.585938 674.394531 224.996094 C 677.34375 229.402344 680.179688 233.882812 682.902344 238.429688 C 685.628906 242.980469 688.242188 247.589844 690.742188 252.265625 C 693.242188 256.945312 695.625 261.679688 697.890625 266.472656 C 700.160156 271.265625 702.308594 276.113281 704.335938 281.011719 C 706.367188 285.910156 708.273438 290.855469 710.058594 295.847656 C 711.847656 300.839844 713.507812 305.875 715.046875 310.949219 C 716.585938 316.023438 718 321.128906 719.289062 326.273438 C 720.578125 331.417969 721.738281 336.589844 722.773438 341.789062 C 723.808594 346.992188 724.714844 352.214844 725.492188 357.460938 C 726.269531 362.703125 726.921875 367.964844 727.441406 373.242188 C 727.960938 378.519531 728.347656 383.804688 728.609375 389.101562 C 728.871094 394.398438 729 399.699219 729 405 C 729 410.300781 728.871094 415.601562 728.609375 420.898438 C 728.347656 426.195312 727.960938 431.480469 727.441406 436.757812 C 726.921875 442.035156 726.269531 447.296875 725.492188 452.539062 C 724.714844 457.785156 723.808594 463.007812 722.773438 468.210938 C 721.738281 473.410156 720.578125 478.582031 719.289062 483.726562 C 718 488.871094 716.589844 493.976562 715.046875 499.050781 C 713.507812 504.125 711.847656 509.160156 710.058594 514.152344 C 708.273438 519.144531 706.367188 524.089844 704.335938 528.988281 C 702.308594 533.886719 700.160156 538.734375 697.890625 543.527344 C 695.625 548.320312 693.242188 553.054688 690.742188 557.734375 C 688.242188 562.410156 685.628906 567.019531 682.902344 571.570312 C 680.179688 576.117188 677.34375 580.597656 674.394531 585.003906 C 671.449219 589.414062 668.398438 593.746094 665.238281 598.007812 C 662.082031 602.265625 658.820312 606.445312 655.457031 610.542969 C 652.089844 614.640625 648.628906 618.65625 645.066406 622.585938 C 641.507812 626.515625 637.851562 630.351562 634.101562 634.101562 C 630.351562 637.851562 626.515625 641.507812 622.585938 645.066406 C 618.65625 648.628906 614.640625 652.089844 610.542969 655.457031 C 606.445312 658.820312 602.265625 662.082031 598.007812 665.238281 C 593.746094 668.398438 589.414062 671.449219 585.003906 674.394531 C 580.597656 677.34375 576.117188 680.179688 571.570312 682.902344 C 567.019531 685.628906 562.410156 688.242188 557.734375 690.742188 C 553.054688 693.242188 548.320312 695.625 543.527344 697.890625 C 538.734375 700.160156 533.886719 702.308594 528.988281 704.335938 C 524.089844 706.367188 519.144531 708.273438 514.152344 710.058594 C 509.160156 711.847656 504.125 713.507812 499.050781 715.046875 C 493.976562 716.585938 488.871094 718 483.726562 719.289062 C 478.582031 720.578125 473.410156 721.738281 468.210938 722.773438 C 463.007812 723.808594 457.785156 724.714844 452.539062 725.492188 C 447.296875 726.269531 442.035156 726.921875 436.757812 727.441406 C 431.480469 727.960938 426.195312 728.347656 420.898438 728.609375 C 415.601562 728.871094 410.300781 729 405 729 C 399.699219 729 394.398438 728.871094 389.101562 728.609375 C 383.804688 728.347656 378.519531 727.960938 373.242188 727.441406 C 367.964844 726.921875 362.703125 726.269531 357.460938 725.492188 C 352.214844 724.714844 346.992188 723.808594 341.789062 722.773438 C 336.589844 721.738281 331.417969 720.578125 326.273438 719.289062 C 321.128906 718 316.023438 716.585938 310.949219 715.046875 C 305.875 713.507812 300.839844 711.847656 295.847656 710.058594 C 290.855469 708.273438 285.910156 706.367188 281.011719 704.335938 C 276.113281 702.308594 271.265625 700.160156 266.472656 697.890625 C 261.679688 695.625 256.945312 693.242188 252.265625 690.742188 C 247.589844 688.242188 242.980469 685.628906 238.429688 682.902344 C 233.882812 680.179688 229.402344 677.34375 224.996094 674.394531 C 220.585938 671.449219 216.253906 668.398438 211.992188 665.238281 C 207.734375 662.082031 203.554688 658.820312 199.457031 655.457031 C 195.359375 652.089844 191.34375 648.628906 187.414062 645.066406 C 183.484375 641.507812 179.648438 637.851562 175.898438 634.101562 C 172.148438 630.351562 168.492188 626.515625 164.933594 622.585938 C 161.371094 618.65625 157.910156 614.640625 154.542969 610.542969 C 151.179688 606.445312 147.917969 602.265625 144.761719 598.007812 C 141.601562 593.746094 138.550781 589.414062 135.605469 585.003906 C 132.65625 580.597656 129.820312 576.117188 127.097656 571.570312 C 124.371094 567.019531 121.757812 562.410156 119.257812 557.734375 C 116.757812 553.054688 114.375 548.320312 112.109375 543.527344 C 109.839844 538.734375 107.691406 533.886719 105.664062 528.988281 C 103.632812 524.089844 101.726562 519.144531 99.941406 514.152344 C 98.152344 509.160156 96.492188 504.125 94.953125 499.050781 C 93.410156 493.976562 92 488.871094 90.710938 483.726562 C 89.421875 478.582031 88.261719 473.410156 87.226562 468.210938 C 86.191406 463.007812 85.285156 457.785156 84.507812 452.539062 C 83.730469 447.296875 83.078125 442.035156 82.558594 436.757812 C 82.039062 431.480469 81.652344 426.195312 81.390625 420.898438 C 81.128906 415.601562 81 410.300781 81 405 C 81 399.699219 81.128906 394.398438 81.390625 389.101562 C 81.652344 383.804688 82.039062 378.519531 82.558594 373.242188 C 83.078125 367.964844 83.730469 362.703125 84.507812 357.460938 C 85.285156 352.214844 86.191406 346.992188 87.226562 341.789062 C 88.261719 336.589844 89.421875 331.417969 90.710938 326.273438 C 92 321.128906 93.410156 316.023438 94.953125 310.949219 C 96.492188 305.875 98.152344 300.839844 99.941406 295.847656 C 101.726562 290.855469 103.632812 285.910156 105.664062 281.011719 C 107.691406 276.113281 109.839844 271.265625 112.109375 266.472656 C 114.375 261.679688 116.757812 256.945312 119.257812 252.265625 C 121.757812 247.589844 124.371094 242.980469 127.097656 238.429688 C 129.820312 233.882812 132.65625 229.402344 135.605469 224.996094 C 138.550781 220.585938 141.601562 216.253906 144.761719 211.992188 C 147.917969 207.734375 151.179688 203.554688 154.542969 199.457031 C 157.910156 195.359375 161.371094 191.34375 164.933594 187.414062 C 168.492188 183.484375 172.148438 179.648438 175.898438 175.898438 C 179.648438 172.148438 183.484375 168.492188 187.414062 164.933594 C 191.34375 161.371094 195.359375 157.910156 199.457031 154.542969 C 203.554688 151.179688 207.734375 147.917969 211.992188 144.761719 C 216.253906 141.601562 220.585938 138.550781 224.996094 135.605469 C 229.402344 132.65625 233.882812 129.820312 238.429688 127.097656 C 242.980469 124.371094 247.589844 121.757812 252.265625 119.257812 C 256.945312 116.757812 261.679688 114.375 266.472656 112.109375 C 271.265625 109.839844 276.113281 107.691406 281.011719 105.664062 C 285.910156 103.632812 290.855469 101.726562 295.847656 99.941406 C 300.839844 98.152344 305.875 96.492188 310.949219 94.953125 C 316.023438 93.414062 321.128906 92 326.273438 90.710938 C 331.417969 89.421875 336.589844 88.261719 341.789062 87.226562 C 346.992188 86.191406 352.214844 85.285156 357.460938 84.507812 C 362.703125 83.730469 367.964844 83.078125 373.242188 82.558594 C 378.519531 82.039062 383.804688 81.652344 389.101562 81.390625 C 394.398438 81.128906 399.699219 81 405 81 Z M 405 81 " clip-rule="nonzero"/></clipPath><linearGradient x1="0.0000000187268" gradientTransform="matrix(0.000000000000039679, -648.000054, 648.000054, 0.000000000000039679, 81.000003, 729.000011)" y1="0.0000000185431" x2="1.004902" gradientUnits="userSpaceOnUse" y2="0.995049" id="86ba7b3048"><stop stop-opacity="1" stop-color="rgb(65.899658%, 33.299255%, 96.899414%)" offset="0"/><stop stop-opacity="1" stop-color="rgb(65.794373%, 33.325195%, 96.890259%)" offset="0.0078125"/><stop stop-opacity="1" stop-color="rgb(65.585327%, 33.377075%, 96.871948%)" offset="0.015625"/><stop stop-opacity="1" stop-color="rgb(65.374756%, 33.428955%, 96.852112%)" offset="0.0234375"/><stop stop-opacity="1" stop-color="rgb(65.16571%, 33.480835%, 96.833801%)" offset="0.03125"/><stop stop-opacity="1" stop-color="rgb(64.956665%, 33.531189%, 96.815491%)" offset="0.0390625"/><stop stop-opacity="1" stop-color="rgb(64.74762%, 33.583069%, 96.79718%)" offset="0.046875"/><stop stop-opacity="1" stop-color="rgb(64.538574%, 33.634949%, 96.77887%)" offset="0.0546875"/><stop stop-opacity="1" stop-color="rgb(64.329529%, 33.686829%, 96.760559%)" offset="0.0625"/><stop stop-opacity="1" stop-color="rgb(64.120483%, 33.738708%, 96.742249%)" offset="0.0703125"/><stop stop-opacity="1" stop-color="rgb(63.911438%, 33.790588%, 96.722412%)" offset="0.078125"/><stop stop-opacity="1" stop-color="rgb(63.702393%, 33.842468%, 96.704102%)" offset="0.0859375"/><stop stop-opacity="1" stop-color="rgb(63.491821%, 33.894348%, 96.685791%)" offset="0.09375"/><stop stop-opacity="1" stop-color="rgb(63.282776%, 33.946228%, 96.66748%)" offset="0.101562"/><stop stop-opacity="1" stop-color="rgb(63.07373%, 33.998108%, 96.64917%)" offset="0.109375"/><stop stop-opacity="1" stop-color="rgb(62.864685%, 34.048462%, 96.630859%)" offset="0.117187"/><stop stop-opacity="1" stop-color="rgb(62.65564%, 34.100342%, 96.612549%)" offset="0.125"/><stop stop-opacity="1" stop-color="rgb(62.446594%, 34.152222%, 96.592712%)" offset="0.132812"/><stop stop-opacity="1" stop-color="rgb(62.237549%, 34.204102%, 96.574402%)" offset="0.140625"/><stop stop-opacity="1" stop-color="rgb(62.028503%, 34.255981%, 96.556091%)" offset="0.148438"/><stop stop-opacity="1" stop-color="rgb(61.819458%, 34.307861%, 96.537781%)" offset="0.15625"/><stop stop-opacity="1" stop-color="rgb(61.608887%, 34.359741%, 96.51947%)" offset="0.164062"/><stop stop-opacity="1" stop-color="rgb(61.399841%, 34.411621%, 96.50116%)" offset="0.171875"/><stop stop-opacity="1" stop-color="rgb(61.190796%, 34.463501%, 96.482849%)" offset="0.179687"/><stop stop-opacity="1" stop-color="rgb(60.98175%, 34.515381%, 96.463013%)" offset="0.1875"/><stop stop-opacity="1" stop-color="rgb(60.772705%, 34.565735%, 96.444702%)" offset="0.195313"/><stop stop-opacity="1" stop-color="rgb(60.56366%, 34.617615%, 96.426392%)" offset="0.203125"/><stop stop-opacity="1" stop-color="rgb(60.354614%, 34.669495%, 96.408081%)" offset="0.210938"/><stop stop-opacity="1" stop-color="rgb(60.145569%, 34.721375%, 96.389771%)" offset="0.21875"/><stop stop-opacity="1" stop-color="rgb(59.936523%, 34.773254%, 96.37146%)" offset="0.226562"/><stop stop-opacity="1" stop-color="rgb(59.725952%, 34.825134%, 96.353149%)" offset="0.234375"/><stop stop-opacity="1" stop-color="rgb(59.516907%, 34.877014%, 96.333313%)" offset="0.242188"/><stop stop-opacity="1" stop-color="rgb(59.307861%, 34.928894%, 96.315002%)" offset="0.25"/><stop stop-opacity="1" stop-color="rgb(59.098816%, 34.980774%, 96.296692%)" offset="0.257812"/><stop stop-opacity="1" stop-color="rgb(58.889771%, 35.032654%, 96.278381%)" offset="0.265625"/><stop stop-opacity="1" stop-color="rgb(58.680725%, 35.083008%, 96.260071%)" offset="0.273438"/><stop stop-opacity="1" stop-color="rgb(58.47168%, 35.134888%, 96.24176%)" offset="0.28125"/><stop stop-opacity="1" stop-color="rgb(58.262634%, 35.186768%, 96.22345%)" offset="0.289062"/><stop stop-opacity="1" stop-color="rgb(58.052063%, 35.238647%, 96.203613%)" offset="0.296875"/><stop stop-opacity="1" stop-color="rgb(57.843018%, 35.290527%, 96.185303%)" offset="0.304687"/><stop stop-opacity="1" stop-color="rgb(57.633972%, 35.342407%, 96.166992%)" offset="0.3125"/><stop stop-opacity="1" stop-color="rgb(57.424927%, 35.394287%, 96.148682%)" offset="0.320312"/><stop stop-opacity="1" stop-color="rgb(57.215881%, 35.446167%, 96.130371%)" offset="0.328125"/><stop stop-opacity="1" stop-color="rgb(57.006836%, 35.498047%, 96.112061%)" offset="0.335937"/><stop stop-opacity="1" stop-color="rgb(56.797791%, 35.549927%, 96.09375%)" offset="0.34375"/><stop stop-opacity="1" stop-color="rgb(56.588745%, 35.600281%, 96.073914%)" offset="0.351562"/><stop stop-opacity="1" stop-color="rgb(56.3797%, 35.652161%, 96.055603%)" offset="0.359375"/><stop stop-opacity="1" stop-color="rgb(56.169128%, 35.704041%, 96.037292%)" offset="0.367188"/><stop stop-opacity="1" stop-color="rgb(55.960083%, 35.75592%, 96.018982%)" offset="0.375"/><stop stop-opacity="1" stop-color="rgb(55.751038%, 35.8078%, 96.000671%)" offset="0.382812"/><stop stop-opacity="1" stop-color="rgb(55.541992%, 35.85968%, 95.982361%)" offset="0.390625"/><stop stop-opacity="1" stop-color="rgb(55.332947%, 35.91156%, 95.96405%)" offset="0.398437"/><stop stop-opacity="1" stop-color="rgb(55.123901%, 35.96344%, 95.944214%)" offset="0.40625"/><stop stop-opacity="1" stop-color="rgb(54.914856%, 36.01532%, 95.925903%)" offset="0.414062"/><stop stop-opacity="1" stop-color="rgb(54.705811%, 36.0672%, 95.907593%)" offset="0.421875"/><stop stop-opacity="1" stop-color="rgb(54.496765%, 36.117554%, 95.889282%)" offset="0.429687"/><stop stop-opacity="1" stop-color="rgb(54.286194%, 36.169434%, 95.870972%)" offset="0.4375"/><stop stop-opacity="1" stop-color="rgb(54.077148%, 36.221313%, 95.852661%)" offset="0.445312"/><stop stop-opacity="1" stop-color="rgb(53.868103%, 36.273193%, 95.834351%)" offset="0.453125"/><stop stop-opacity="1" stop-color="rgb(53.659058%, 36.325073%, 95.814514%)" offset="0.460937"/><stop stop-opacity="1" stop-color="rgb(53.450012%, 36.376953%, 95.796204%)" offset="0.46875"/><stop stop-opacity="1" stop-color="rgb(53.240967%, 36.428833%, 95.777893%)" offset="0.476562"/><stop stop-opacity="1" stop-color="rgb(53.031921%, 36.480713%, 95.759583%)" offset="0.484375"/><stop stop-opacity="1" stop-color="rgb(52.822876%, 36.532593%, 95.741272%)" offset="0.492187"/><stop stop-opacity="1" stop-color="rgb(52.612305%, 36.584473%, 95.722961%)" offset="0.497537"/><stop stop-opacity="1" stop-color="rgb(52.508545%, 36.610413%, 95.713806%)" offset="0.5"/><stop stop-opacity="1" stop-color="rgb(52.403259%, 36.634827%, 95.704651%)" offset="0.502463"/><stop stop-opacity="1" stop-color="rgb(52.2995%, 36.660767%, 95.695496%)" offset="0.507812"/><stop stop-opacity="1" stop-color="rgb(52.194214%, 36.686707%, 95.684814%)" offset="0.515625"/><stop stop-opacity="1" stop-color="rgb(51.985168%, 36.738586%, 95.666504%)" offset="0.523438"/><stop stop-opacity="1" stop-color="rgb(51.776123%, 36.790466%, 95.648193%)" offset="0.53125"/><stop stop-opacity="1" stop-color="rgb(51.567078%, 36.842346%, 95.629883%)" offset="0.539063"/><stop stop-opacity="1" stop-color="rgb(51.358032%, 36.894226%, 95.611572%)" offset="0.546875"/><stop stop-opacity="1" stop-color="rgb(51.148987%, 36.946106%, 95.593262%)" offset="0.554688"/><stop stop-opacity="1" stop-color="rgb(50.939941%, 36.997986%, 95.574951%)" offset="0.5625"/><stop stop-opacity="1" stop-color="rgb(50.72937%, 37.049866%, 95.555115%)" offset="0.570312"/><stop stop-opacity="1" stop-color="rgb(50.520325%, 37.101746%, 95.536804%)" offset="0.578125"/><stop stop-opacity="1" stop-color="rgb(50.311279%, 37.1521%, 95.518494%)" offset="0.585938"/><stop stop-opacity="1" stop-color="rgb(50.102234%, 37.203979%, 95.500183%)" offset="0.59375"/><stop stop-opacity="1" stop-color="rgb(49.893188%, 37.255859%, 95.481873%)" offset="0.601562"/><stop stop-opacity="1" stop-color="rgb(49.684143%, 37.307739%, 95.463562%)" offset="0.609375"/><stop stop-opacity="1" stop-color="rgb(49.475098%, 37.359619%, 95.445251%)" offset="0.617188"/><stop stop-opacity="1" stop-color="rgb(49.266052%, 37.411499%, 95.425415%)" offset="0.625"/><stop stop-opacity="1" stop-color="rgb(49.057007%, 37.463379%, 95.407104%)" offset="0.632813"/><stop stop-opacity="1" stop-color="rgb(48.846436%, 37.515259%, 95.388794%)" offset="0.640625"/><stop stop-opacity="1" stop-color="rgb(48.63739%, 37.567139%, 95.370483%)" offset="0.648438"/><stop stop-opacity="1" stop-color="rgb(48.428345%, 37.619019%, 95.352173%)" offset="0.65625"/><stop stop-opacity="1" stop-color="rgb(48.219299%, 37.669373%, 95.333862%)" offset="0.664062"/><stop stop-opacity="1" stop-color="rgb(48.010254%, 37.721252%, 95.315552%)" offset="0.671875"/><stop stop-opacity="1" stop-color="rgb(47.801208%, 37.773132%, 95.295715%)" offset="0.679688"/><stop stop-opacity="1" stop-color="rgb(47.592163%, 37.825012%, 95.277405%)" offset="0.6875"/><stop stop-opacity="1" stop-color="rgb(47.383118%, 37.876892%, 95.259094%)" offset="0.695312"/><stop stop-opacity="1" stop-color="rgb(47.172546%, 37.928772%, 95.240784%)" offset="0.703125"/><stop stop-opacity="1" stop-color="rgb(46.963501%, 37.980652%, 95.222473%)" offset="0.710938"/><stop stop-opacity="1" stop-color="rgb(46.754456%, 38.032532%, 95.204163%)" offset="0.71875"/><stop stop-opacity="1" stop-color="rgb(46.54541%, 38.084412%, 95.185852%)" offset="0.726563"/><stop stop-opacity="1" stop-color="rgb(46.336365%, 38.136292%, 95.166016%)" offset="0.734375"/><stop stop-opacity="1" stop-color="rgb(46.127319%, 38.186646%, 95.147705%)" offset="0.742188"/><stop stop-opacity="1" stop-color="rgb(45.918274%, 38.238525%, 95.129395%)" offset="0.75"/><stop stop-opacity="1" stop-color="rgb(45.709229%, 38.290405%, 95.111084%)" offset="0.757812"/><stop stop-opacity="1" stop-color="rgb(45.500183%, 38.342285%, 95.092773%)" offset="0.765625"/><stop stop-opacity="1" stop-color="rgb(45.289612%, 38.394165%, 95.074463%)" offset="0.773437"/><stop stop-opacity="1" stop-color="rgb(45.080566%, 38.446045%, 95.056152%)" offset="0.78125"/><stop stop-opacity="1" stop-color="rgb(44.871521%, 38.497925%, 95.036316%)" offset="0.789062"/><stop stop-opacity="1" stop-color="rgb(44.662476%, 38.549805%, 95.018005%)" offset="0.796875"/><stop stop-opacity="1" stop-color="rgb(44.45343%, 38.601685%, 94.999695%)" offset="0.804688"/><stop stop-opacity="1" stop-color="rgb(44.244385%, 38.653564%, 94.981384%)" offset="0.8125"/><stop stop-opacity="1" stop-color="rgb(44.035339%, 38.703918%, 94.963074%)" offset="0.820312"/><stop stop-opacity="1" stop-color="rgb(43.826294%, 38.755798%, 94.944763%)" offset="0.828125"/><stop stop-opacity="1" stop-color="rgb(43.617249%, 38.807678%, 94.926453%)" offset="0.835938"/><stop stop-opacity="1" stop-color="rgb(43.406677%, 38.859558%, 94.906616%)" offset="0.84375"/><stop stop-opacity="1" stop-color="rgb(43.197632%, 38.911438%, 94.888306%)" offset="0.851562"/><stop stop-opacity="1" stop-color="rgb(42.988586%, 38.963318%, 94.869995%)" offset="0.859375"/><stop stop-opacity="1" stop-color="rgb(42.779541%, 39.015198%, 94.851685%)" offset="0.867187"/><stop stop-opacity="1" stop-color="rgb(42.570496%, 39.067078%, 94.833374%)" offset="0.875"/><stop stop-opacity="1" stop-color="rgb(42.36145%, 39.118958%, 94.815063%)" offset="0.882812"/><stop stop-opacity="1" stop-color="rgb(42.152405%, 39.170837%, 94.796753%)" offset="0.890625"/><stop stop-opacity="1" stop-color="rgb(41.943359%, 39.221191%, 94.776917%)" offset="0.898438"/><stop stop-opacity="1" stop-color="rgb(41.734314%, 39.273071%, 94.758606%)" offset="0.90625"/><stop stop-opacity="1" stop-color="rgb(41.523743%, 39.324951%, 94.740295%)" offset="0.914062"/><stop stop-opacity="1" stop-color="rgb(41.314697%, 39.376831%, 94.721985%)" offset="0.921875"/><stop stop-opacity="1" stop-color="rgb(41.105652%, 39.428711%, 94.703674%)" offset="0.929688"/><stop stop-opacity="1" stop-color="rgb(40.896606%, 39.480591%, 94.685364%)" offset="0.9375"/><stop stop-opacity="1" stop-color="rgb(40.687561%, 39.532471%, 94.667053%)" offset="0.945312"/><stop stop-opacity="1" stop-color="rgb(40.478516%, 39.584351%, 94.647217%)" offset="0.953125"/><stop stop-opacity="1" stop-color="rgb(40.26947%, 39.63623%, 94.628906%)" offset="0.960937"/><stop stop-opacity="1" stop-color="rgb(40.060425%, 39.686584%, 94.610596%)" offset="0.96875"/><stop stop-opacity="1" stop-color="rgb(39.849854%, 39.738464%, 94.592285%)" offset="0.976562"/><stop stop-opacity="1" stop-color="rgb(39.640808%, 39.790344%, 94.573975%)" offset="0.984375"/><stop stop-opacity="1" stop-color="rgb(39.431763%, 39.842224%, 94.555664%)" offset="0.992188"/><stop stop-opacity="1" stop-color="rgb(39.222717%, 39.894104%, 94.537354%)" offset="1"/></linearGradient></defs><rect x="-81" width="972" fill="#ffffff" y="-80.999999" height="971.999992" fill-opacity="1"/><rect x="-81" width="972" fill="#ffffff" y="-80.999999" height="971.999992" fill-opacity="1"/><rect x="-81" width="972" fill="#ffffff" y="-80.999999" height="971.999992" fill-opacity="1"/><g clip-path="url(#19a3c03fda)"><g clip-path="url(#5a73b344e9)"><path fill="url(#86ba7b3048)" d="M 81 729 L 729 729 L 729 81 L 81 81 Z M 81 729 " fill-rule="nonzero"/></g></g></svg>